<?xml version="1.0" encoding="UTF-8"?><svg id="a" xmlns="http://www.w3.org/2000/svg" width="16" height="16" viewBox="0 0 16 16"><defs><style>.b{fill:#e55253;}</style></defs><path class="b" d="M.08,14.71v-1.84h1.82v-3.84H.08v-1.38c.36-.02.74-.1,1.15-.23.41-.13.81-.29,1.2-.48.39-.19.73-.39,1.03-.59h.8v6.52h1.75v1.84H.08Z"/><path class="b" d="M9.14,14.83c-.55,0-1.06-.13-1.51-.4-.46-.27-.82-.63-1.09-1.09-.27-.46-.4-.96-.4-1.51v-2.47c0-.56.13-1.07.4-1.52.27-.45.63-.81,1.09-1.08.46-.27.96-.4,1.51-.4h.54c.56,0,1.07.13,1.52.4.45.27.81.63,1.08,1.08.27.45.4.96.4,1.52v2.47c0,.55-.13,1.06-.4,1.51-.27.46-.63.82-1.08,1.09-.45.27-.96.4-1.52.4h-.54ZM9.4,13.09c.18,0,.33-.04.46-.13.13-.09.24-.2.32-.35.08-.14.12-.3.12-.48v-3.08c0-.18-.04-.34-.12-.48s-.19-.26-.32-.35c-.13-.09-.28-.13-.45-.13s-.32.04-.46.13c-.14.09-.24.2-.32.35s-.12.3-.12.48v3.08c0,.18.04.34.12.48.08.14.19.26.32.35.14.09.28.13.44.13Z"/><path class="b" d="M10.22,5.51c-.33,0-.61-.06-.85-.18s-.42-.29-.55-.51c-.13-.22-.19-.49-.19-.79h.93c0,.21.06.38.18.5.12.13.27.19.46.19.12,0,.24-.03.34-.08.1-.06.18-.13.24-.23s.09-.21.09-.33v-.66c-.12.13-.26.24-.43.3-.17.07-.33.1-.48.1-.26,0-.5-.05-.72-.16-.22-.11-.39-.26-.52-.46-.13-.2-.2-.45-.2-.74,0-.31.07-.58.22-.81.15-.23.35-.41.6-.53.25-.12.54-.19.86-.19s.62.07.88.2c.26.13.46.32.6.55.14.23.21.51.21.82v1.44c0,.31-.07.59-.22.82-.14.24-.34.42-.6.55-.25.13-.54.2-.86.2ZM10.21,3.18c.15,0,.27-.03.37-.09.1-.06.17-.15.22-.27.05-.11.08-.25.08-.39,0-.16-.03-.3-.08-.41-.05-.11-.13-.2-.23-.26s-.22-.09-.36-.09-.26.03-.36.09c-.1.06-.18.15-.23.26-.05.11-.08.25-.08.4,0,.15.03.28.08.39.05.11.13.2.23.26.1.06.22.09.36.09Z"/><path class="b" d="M14.23,5.51c-.33,0-.61-.06-.84-.18s-.42-.29-.55-.51-.19-.49-.19-.79h.93c0,.21.06.38.18.5.12.13.27.19.46.19.13,0,.24-.03.34-.08.1-.06.18-.13.24-.23s.09-.21.09-.33v-.66c-.12.13-.26.24-.43.3-.17.07-.33.1-.48.1-.26,0-.5-.05-.72-.16-.22-.11-.39-.26-.52-.46s-.19-.45-.19-.74c0-.31.07-.58.22-.81.14-.23.34-.41.6-.53s.54-.19.86-.19.62.07.88.2c.26.13.46.32.6.55.14.23.21.51.21.82v1.44c0,.31-.07.59-.22.82-.15.24-.34.42-.6.55-.25.13-.54.2-.86.2ZM14.21,3.18c.15,0,.27-.03.37-.09.1-.06.17-.15.22-.27.05-.11.08-.25.08-.39,0-.16-.03-.3-.08-.41s-.13-.2-.23-.26-.22-.09-.36-.09-.26.03-.36.09-.18.15-.23.26-.08.25-.08.4c0,.15.03.28.08.39s.13.2.23.26.22.09.36.09Z"/></svg>